<?xml version="1.0" encoding="UTF-8"?><svg id="Layer_1" xmlns="http://www.w3.org/2000/svg" viewBox="0 0 527.79 559.28"><defs><style>.cls-1{fill:#b7893e;fill-rule:evenodd;}</style></defs><path class="cls-1" d="m222.49,259.01c-29.14-28.1-56.55-57.09-72.29-79.35,19.04,11.86,50.37,37.66,81.81,66.3,2.53-75.44,8.25-147.72,17.08-196.79,5.3,43.11,8.64,118.51,8.75,198.86,29.94-27.06,59.31-51.02,77.43-62.35-14.74,20.85-39.62,47.53-66.64,73.86,82.81,1.61,163.39,6.91,212.68,17.12-49.37,6.99-126.46,10.13-207,9.6,28.33,28.26,51.44,54.44,58.05,68.3-13.17-9.25-42.61-33.63-74.82-62.77-1.15,89.29-6.45,178.63-17.43,231.72-7.6-53.75-10.67-140.28-9.37-228.34-33.32,30.29-64.15,55.86-77.74,65.42,7.14-14.97,33.67-44.38,65.15-75.28-80.58-2.23-159.01-8.14-211.18-17.54,46.11-5.68,129.03-9.06,215.52-8.75Z"/></svg>